# xmcd
#
# Track frame offsets:
#	150
#	13513
#	31257
#	48232
#	63673
#	84179
#	95773
#	110990
#	127626
#	143812
#	166609
#	183764
#	197287
#
# Disc length: 2886 seconds
#
# Revision: 1
# Processed by: cddbd v1.5.2PL0 Copyright (c) Steve Scherf et al.
# Submitted via: audiograbber 1.83.01
#
DISCID=9a0b440d
DTITLE=Various Artist - Great Voices
DYEAR=2014
DGENRE=Chamber Music
TTITLE0=Ben L'Oncle Soul - Seven Nation Army-Remasterisée
TTITLE1=Gregory Porter - No Love Dying
TTITLE2=Aloe Blacc - Wake Me Up-Acoustic
TTITLE3=Zebra Dots - Outta My Mind
TTITLE4=Jamie Cullum - When I Get Famous
TTITLE5=Mayer Hawthorne - You Called Me
TTITLE6=Leslie Clio - Dr Feelgood
TTITLE7=Duffy - Mercy
TTITLE8=Maverick Sabre - No One
TTITLE9=Soundhotel - It's Not The Same
TTITLE10=Ben L'Oncle Soul - Come Home
TTITLE11=Jackson 5 - I Want You Back
TTITLE12=Commodores - Easy
EXTD=
EXTT0=
EXTT1=
EXTT2=
EXTT3=
EXTT4=
EXTT5=
EXTT6=
EXTT7=
EXTT8=
EXTT9=
EXTT10=
EXTT11=
EXTT12=
PLAYORDER=
